PathFileType	4	(X/Y/Z)	/Users/itak/Documents/Research/Walk-IL/dataset/trc/00100_00007.trc
DataRate	CameraRate	NumFrames	NumMarkers	Units	OrigDataRate	OrigDataStartFrame	OrigNumFrames
100.000000	100.000000	4	53	mm	100.000000	66	528
Frame#	Time	RPSI			LPSI			L3			STRN			T10			C7			CLAV			RBAK			LBAK			LSHO			LUPA			LAEL			LAOL			LWTS			LWPS			LFRA			LIFD			LHPS			LHTS			RSHO			RUPA			RAEL			RAOL			RWTS			RWPS			RFRA			RIFD			RHTS			RHPS			RBHD			LFHD			RFHD			LBHD			LHIP			RHIP			RASI			LASI			LKNE			LTHI			LANK			LTIP			LTOE			LMT1			LMT5			LHEE			RKNE			RTHI			RANK			RTIP			RTOE			RMT1			RMT5			RHEE			
		X1	Y1	Z1	X2	Y2	Z2	X3	Y3	Z3	X4	Y4	Z4	X5	Y5	Z5	X6	Y6	Z6	X7	Y7	Z7	X8	Y8	Z8	X9	Y9	Z9	X10	Y10	Z10	X11	Y11	Z11	X12	Y12	Z12	X13	Y13	Z13	X14	Y14	Z14	X15	Y15	Z15	X16	Y16	Z16	X17	Y17	Z17	X18	Y18	Z18	X19	Y19	Z19	X20	Y20	Z20	X21	Y21	Z21	X22	Y22	Z22	X23	Y23	Z23	X24	Y24	Z24	X25	Y25	Z25	X26	Y26	Z26	X27	Y27	Z27	X28	Y28	Z28	X29	Y29	Z29	X30	Y30	Z30	X31	Y31	Z31	X32	Y32	Z32	X33	Y33	Z33	X34	Y34	Z34	X35	Y35	Z35	X36	Y36	Z36	X37	Y37	Z37	X38	Y38	Z38	X39	Y39	Z39	X40	Y40	Z40	X41	Y41	Z41	X42	Y42	Z42	X43	Y43	Z43	X44	Y44	Z44	X45	Y45	Z45	X46	Y46	Z46	X47	Y47	Z47	X48	Y48	Z48	X49	Y49	Z49	X50	Y50	Z50	X51	Y51	Z51	X52	Y52	Z52	X53	Y53	Z53	

67	0.66	-1945.24853515625	1125.941772460938	-279.5223999023438	-1945.879760742188	1127.291015625	-414.1632690429688	-1953.165283203125	1159.330200195312	-349.7821044921875	-1734.46142578125	1362.500366210938	-349.3268737792969	-1991.804443359375	1310.882446289062	-351.2431640625	-1954.066040039062	1602.973388671875	-366.4518432617188	-1768.358154296875	1498.9599609375	-353.679443359375	-2011.411010742188	1419.2783203125	-278.1814575195312	-1959.583984375	1583.958618164062	-468.2821044921875	-1871.411987304688	1570.938354492188	-534.6986083984375	-1890.800170898438	1439.354370117188	-605.3551635742188	-1875.811401367188	1220.095336914062	-627.7523193359375	-1941.938598632812	1206.268920898438	-571.0873413085938	-1766.82275390625	966.9049682617188	-585.332275390625	-1847.981201171875	938.2269287109375	-610.9913940429688	-1856.614501953125	1104.777465820312	-631.6121826171875	-1750.534423828125	773.9973754882812	-562.2188110351562	-1815.380737304688	864.51513671875	-611.9296875	-1748.793823242188	877.9578857421875	-596.1218872070312	-1903.228881835938	1586.868896484375	-184.4819183349609	-1921.452880859375	1514.4853515625	-120.0021743774414	-1928.5224609375	1219.534912109375	-94.49272155761719	-1935.505126953125	1216.88232421875	-191.6378173828125	-1774.377563476562	981.81591796875	-106.1997833251953	-1849.807495117188	962.7271118164062	-73.38496398925781	-1903.120971679688	1146.630737304688	-78.35887908935547	-1744.543334960938	787.3473510742188	-122.2237243652344	-1742.019287109375	873.6257934570312	-100.3920288085938	-1809.11669921875	864.177734375	-68.96591186523438	-1929.291625976562	1769.205078125	-289.4646301269531	-1765.285522460938	1847.4765625	-416.0052185058594	-1771.665893554688	1853.465087890625	-286.9829711914062	-1929.783569335938	1766.416137695312	-424.9248046875	-1854.212768554688	1037.915893554688	-520.7045288085938	-1817.99462890625	1031.107421875	-162.8772430419922	-1736.58837890625	1105.082885742188	-215.0730590820312	-1746.323364257812	1103.325805664062	-481.3399047851562	-1829.566650390625	535.9403686523438	-484.7301635742188	-1849.081298828125	682.1377563476562	-514.4002075195312	-1942.7509765625	36.99262237548828	-469.6823425292969	-1930.562866210938	289.5687866210938	-507.0358581542969	-1712.618774414062	36.85198974609375	-407.0642395019531	-1794.735473632812	41.09310150146484	-375.46142578125	-1816.48876953125	33.335693359375	-493.5448913574219	-2012.073974609375	36.90602111816406	-407.2498779296875	-1827.195190429688	538.8245239257812	-193.0862579345703	-1799.43896484375	818.5651245117188	-166.5162200927734	-1935.833374023438	29.52390098571777	-204.7601928710938	-1855.242919921875	405.6718444824219	-180.4710693359375	-1704.995849609375	40.80061721801758	-255.3600921630859	-1764.681030273438	29.46287536621094	-299.0638732910156	-1802.524047851562	36.95132446289062	-182.8099975585938	-1993.033569335938	31.4134521484375	-252.9214935302734	
68	0.67	-1945.122924804688	1125.948120117188	-279.55859375	-1945.734130859375	1127.293701171875	-414.2020263671875	-1953.023315429688	1159.329956054688	-349.8164978027344	-1734.363891601562	1362.440673828125	-349.333251953125	-1991.637817382812	1310.843017578125	-351.265625	-1953.88232421875	1602.973876953125	-366.5026550292969	-1768.183471679688	1498.904663085938	-353.7031555175781	-2011.279418945312	1419.274536132812	-278.2398376464844	-1959.37744140625	1583.951171875	-468.3032531738281	-1871.16845703125	1570.8955078125	-534.6746215820312	-1890.556884765625	1439.339477539062	-605.3399658203125	-1875.485473632812	1220.08251953125	-627.8155517578125	-1941.642944335938	1206.222778320312	-571.1710205078125	-1766.549560546875	966.8797607421875	-585.4325561523438	-1847.705688476562	938.2171020507812	-611.1581420898438	-1856.282592773438	1104.774536132812	-631.7042846679688	-1750.24658203125	773.9461059570312	-562.4263305664062	-1815.098754882812	864.4995727539062	-612.1258544921875	-1748.496948242188	877.9317016601562	-596.3030395507812	-1903.11328125	1586.812133789062	-184.4771881103516	-1921.35693359375	1514.3974609375	-120.0263748168945	-1928.376098632812	1219.4423828125	-94.55308532714844	-1935.344116210938	1216.806030273438	-191.7135620117188	-1774.214965820312	981.7940063476562	-106.2660140991211	-1849.644165039062	962.6583251953125	-73.47541046142578	-1902.9638671875	1146.568115234375	-78.40024566650391	-1744.375732421875	787.2833251953125	-122.2699890136719	-1741.7216796875	873.5983276367188	-100.4116439819336	-1808.931396484375	864.0872802734375	-69.0654296875	-1928.95849609375	1769.201782226562	-289.4325866699219	-1764.97265625	1847.43994140625	-416.0367736816406	-1771.305419921875	1853.423706054688	-287.0046081542969	-1929.504638671875	1766.454956054688	-424.9537048339844	-1854.090942382812	1037.89111328125	-520.7342529296875	-1817.845336914062	1031.080932617188	-162.8951416015625	-1736.487182617188	1105.046875	-215.0962677001953	-1746.053588867188	1103.304321289062	-481.3170166015625	-1829.505859375	535.9261474609375	-484.7308044433594	-1849.020751953125	682.133544921875	-514.4122924804688	-1942.750122070312	36.98894119262695	-469.6820068359375	-1930.526489257812	289.5500183105469	-507.0307312011719	-1712.62353515625	36.85202026367188	-407.065673828125	-1794.732299804688	41.09079360961914	-375.4579772949219	-1816.49072265625	33.33919525146484	-493.5464782714844	-2012.076049804688	36.90076065063477	-407.251220703125	-1827.144775390625	538.8169555664062	-193.093505859375	-1799.327392578125	818.5455322265625	-166.5145111083984	-1935.831787109375	29.5244255065918	-204.7617950439453	-1855.196533203125	405.6688842773438	-180.4844512939453	-1704.971313476562	40.81978988647461	-255.3679046630859	-1764.67333984375	29.46396064758301	-299.0696105957031	-1802.52734375	36.95069885253906	-182.8183898925781	-1993.033203125	31.41587257385254	-252.9225921630859	
69	0.68	-1944.991943359375	1125.95458984375	-279.5931091308594	-1945.586181640625	1127.297119140625	-414.2356567382812	-1952.882934570312	1159.332397460938	-349.8524169921875	-1734.260864257812	1362.382690429688	-349.3417358398438	-1991.475830078125	1310.810913085938	-351.2758178710938	-1953.707153320312	1602.977294921875	-366.5491638183594	-1768.007080078125	1498.826904296875	-353.7417602539062	-2011.13671875	1419.275756835938	-278.2939758300781	-1959.178588867188	1583.945922851562	-468.3158264160156	-1870.922485351562	1570.861206054688	-534.6539306640625	-1890.326782226562	1439.329345703125	-605.3265380859375	-1875.166381835938	1220.068969726562	-627.87060546875	-1941.334594726562	1206.179443359375	-571.2440795898438	-1766.282470703125	966.8665161132812	-585.5249633789062	-1847.4150390625	938.2101440429688	-611.304443359375	-1855.958862304688	1104.774780273438	-631.7866821289062	-1749.945434570312	773.899169921875	-562.5999755859375	-1814.8046875	864.4892578125	-612.2943115234375	-1748.181030273438	877.9075317382812	-596.4568481445312	-1902.992309570312	1586.754150390625	-184.4694519042969	-1921.256958007812	1514.315185546875	-120.053581237793	-1928.235473632812	1219.352905273438	-94.60741424560547	-1935.179565429688	1216.726928710938	-191.7838439941406	-1774.063598632812	981.7623901367188	-106.3303451538086	-1849.476440429688	962.5843505859375	-73.55572509765625	-1902.813598632812	1146.509033203125	-78.43148803710938	-1744.227294921875	787.2218627929688	-122.3063888549805	-1741.417602539062	873.5584716796875	-100.4153213500977	-1808.749755859375	864.0020751953125	-69.14466094970703	-1928.61962890625	1769.199462890625	-289.4061279296875	-1764.677368164062	1847.4033203125	-416.0670471191406	-1770.9501953125	1853.3798828125	-287.0170593261719	-1929.229858398438	1766.494750976562	-424.9771118164062	-1853.950439453125	1037.869140625	-520.7569580078125	-1817.68896484375	1031.054077148438	-162.9120941162109	-1736.383178710938	1105.01220703125	-215.1177368164062	-1745.80712890625	1103.278198242188	-481.2911071777344	-1829.445068359375	535.9122924804688	-484.7311401367188	-1848.962158203125	682.13037109375	-514.427001953125	-1942.75	36.98472213745117	-469.6814880371094	-1930.49169921875	289.53173828125	-507.0244750976562	-1712.6279296875	36.85262298583984	-407.0665283203125	-1794.728515625	41.08803939819336	-375.4534301757812	-1816.492431640625	33.34219741821289	-493.5481872558594	-2012.077880859375	36.89606475830078	-407.2522583007812	-1827.088745117188	538.808837890625	-193.1008453369141	-1799.212768554688	818.5250854492188	-166.5149230957031	-1935.83251953125	29.52948188781738	-204.7640380859375	-1855.148803710938	405.6642761230469	-180.4967193603516	-1704.939819335938	40.84406661987305	-255.3797912597656	-1764.66259765625	29.46549034118652	-299.0769348144531	-1802.53173828125	36.94898986816406	-182.8276824951172	-1993.032958984375	31.41815757751465	-252.9238433837891	
70	0.6900000000000001	-1944.854858398438	1125.961669921875	-279.6261291503906	-1945.435668945312	1127.301635742188	-414.2647705078125	-1952.740966796875	1159.336669921875	-349.8883666992188	-1734.142333984375	1362.3271484375	-349.3507080078125	-1991.320068359375	1310.792846679688	-351.2810363769531	-1953.539184570312	1602.982421875	-366.5906372070312	-1767.83544921875	1498.730834960938	-353.7872009277344	-2010.98046875	1419.279907226562	-278.3437805175781	-1958.985961914062	1583.9423828125	-468.3231811523438	-1870.676147460938	1570.835815429688	-534.63671875	-1890.104614257812	1439.322143554688	-605.3170776367188	-1874.85400390625	1220.055786132812	-627.9171752929688	-1941.01513671875	1206.140014648438	-571.3054809570312	-1766.011108398438	966.8646850585938	-585.6099243164062	-1847.107666015625	938.2061157226562	-611.4278564453125	-1855.64501953125	1104.7783203125	-631.8590087890625	-1749.633056640625	773.8579711914062	-562.7406005859375	-1814.503173828125	864.4861450195312	-612.43408203125	-1747.850830078125	877.8819580078125	-596.5777587890625	-1902.863403320312	1586.69580078125	-184.4599304199219	-1921.153076171875	1514.239501953125	-120.0860824584961	-1928.100341796875	1219.266967773438	-94.65679931640625	-1935.013427734375	1216.648315429688	-191.8491516113281	-1773.921875	981.7215576171875	-106.3936538696289	-1849.305908203125	962.5081787109375	-73.62486267089844	-1902.669921875	1146.454223632812	-78.45333099365234	-1744.095458984375	787.1644287109375	-122.3350677490234	-1741.11962890625	873.5049438476562	-100.4097595214844	-1808.573364257812	863.9238891601562	-69.2032470703125	-1928.279663085938	1769.203857421875	-289.3897399902344	-1764.392700195312	1847.36376953125	-416.0945434570312	-1770.603149414062	1853.333984375	-287.0213012695312	-1928.960205078125	1766.538452148438	-424.9931640625	-1853.799438476562	1037.850219726562	-520.7748413085938	-1817.527709960938	1031.026611328125	-162.9284362792969	-1736.272583007812	1104.977416992188	-215.1372833251953	-1745.585205078125	1103.247924804688	-481.2651062011719	-1829.384033203125	535.8983764648438	-484.7318115234375	-1848.9072265625	682.1285400390625	-514.4453125	-1942.7509765625	36.97988510131836	-469.6808471679688	-1930.458129882812	289.5140075683594	-507.0193786621094	-1712.632202148438	36.85417175292969	-407.06689453125	-1794.724975585938	41.08490371704102	-375.44775390625	-1816.494018554688	33.34442138671875	-493.5498046875	-2012.079711914062	36.89243316650391	-407.2530517578125	-1827.029174804688	538.8001098632812	-193.1072998046875	-1799.097045898438	818.5039672851562	-166.5150604248047	-1935.835083007812	29.53705215454102	-204.7663726806641	-1855.104370117188	405.6575317382812	-180.5059356689453	-1704.909912109375	40.86606597900391	-255.3933410644531	-1764.650268554688	29.46712493896484	-299.0847778320312	-1802.53564453125	36.94660949707031	-182.8364410400391	-1993.032836914062	31.41988372802734	-252.9250793457031	
